<svg xmlns="http://www.w3.org/2000/svg" xmlns:xlink="http://www.w3.org/1999/xlink" version="1.1" data-diagram-type="SEQUENCE" style="width:1046px;height:1410px;background:#FFFFFF;" width="1046.875px" height="1410.417px" viewBox="0 0 1046 1410" zoomAndPan="magnify" preserveAspectRatio="none" contentStyleType="text/css"><?plantuml 1.2026.7?><defs><linearGradient x1="50%" y1="0%" x2="50%" y2="100%" id="g1kfwh0ip4uk2t0"><stop stop-color="#59B6EC" offset="0%"/><stop stop-color="#2FA4E7" offset="100%"/></linearGradient><linearGradient x1="50%" y1="0%" x2="50%" y2="100%" id="g1kfwh0ip4uk2t1"><stop stop-color="#35638F" offset="0%"/><stop stop-color="#033C73" offset="100%"/></linearGradient><linearGradient x1="50%" y1="0%" x2="50%" y2="100%" id="g1kfwh0ip4uk2t2"><stop stop-color="#FFF" offset="0%"/><stop stop-color="#F8F9FA" offset="100%"/></linearGradient></defs><g font-family="sans-serif" lengthAdjust="spacing"><rect x="581.464" y="666.113" width="439.579" height="69.727" fill="none" style="stroke:#59B6EC;stroke-width:1.042;" rx="4.167" ry="4.167"/><g><title>Solana</title><rect x="126.279" y="1110.514" width="8.333" height="125.944" fill="#000" fill-opacity="0"/><line x1="129.925" y1="1110.514" x2="129.925" y2="1236.458" style="stroke:#BABDBF;stroke-width:1.042;stroke-dasharray:5.208,5.208;"/></g><g><title>Dapp</title><rect x="303.654" y="87.435" width="8.333" height="1149.023" fill="#000" fill-opacity="0"/><line x1="307.3" y1="87.435" x2="307.3" y2="1236.458" style="stroke:#BABDBF;stroke-width:1.042;stroke-dasharray:5.208,5.208;"/></g><g><title></title><rect x="302.092" y="131.152" width="10.417" height="149.87" fill="#EDF0F2" style="stroke:#2683B9;stroke-width:1.042;"/></g><g><title></title><rect x="302.092" y="352.832" width="10.417" height="158.203" fill="#EDF0F2" style="stroke:#2683B9;stroke-width:1.042;"/></g><g><title></title><rect x="302.092" y="771.224" width="10.417" height="115.527" fill="#EDF0F2" style="stroke:#2683B9;stroke-width:1.042;"/></g><g><title></title><rect x="302.092" y="1058.464" width="10.417" height="72.852" fill="#EDF0F2" style="stroke:#2683B9;stroke-width:1.042;"/></g><g><title>Wallet</title><rect x="594.485" y="87.435" width="8.333" height="1149.023" fill="#000" fill-opacity="0"/><line x1="598.131" y1="87.435" x2="598.131" y2="1236.458" style="stroke:#BABDBF;stroke-width:1.042;stroke-dasharray:5.208,5.208;"/></g><g><title></title><rect x="592.922" y="281.022" width="10.417" height="71.81" fill="#EDF0F2" style="stroke:#2683B9;stroke-width:1.042;"/></g><g><title></title><rect x="592.922" y="511.035" width="10.417" height="260.189" fill="#EDF0F2" style="stroke:#2683B9;stroke-width:1.042;"/></g><g><title></title><rect x="592.922" y="886.751" width="10.417" height="171.712" fill="#EDF0F2" style="stroke:#2683B9;stroke-width:1.042;"/></g><rect x="269.89" y="35.384" width="74.821" height="45.801" fill="url(#g1kfwh0ip4uk2t0)" style="stroke:#2FA4E7;stroke-width:1.042;" rx="4.167" ry="4.167"/><text x="290.723" y="62.612" fill="#FFF" font-size="12.5" textLength="33.154" font-family="'Verdana'">Dapp</text><rect x="557.519" y="35.384" width="81.224" height="45.801" fill="url(#g1kfwh0ip4uk2t0)" style="stroke:#2FA4E7;stroke-width:1.042;" rx="4.167" ry="4.167"/><text x="578.352" y="62.612" fill="#FFF" font-size="12.5" textLength="39.557" font-family="'Verdana'">Wallet</text><path d="M20.833,105.143 L20.833,120.768 A4.167,4.167 0 0 0 25,124.935 L702.083,124.935 A4.167,4.167 0 0 0 706.25,120.768 L706.25,111.393 L695.833,100.977 L25,100.977 A4.167,4.167 0 0 0 20.833,105.143" style="stroke:#033C73;stroke-width:1.042;" fill="url(#g1kfwh0ip4uk2t1)"/><path d="M695.833,100.977 L695.833,109.31 A2.083,2.083 0 0 0 697.917,111.393 L706.25,111.393 L695.833,100.977" style="stroke:#033C73;stroke-width:1.042;" fill="url(#g1kfwh0ip4uk2t1)"/><text x="27.083" y="117.788" fill="#FFF" font-size="12.5" textLength="664.514" font-family="'Verdana'">Dapp has established a session with Wallet for transaction signing using a previously obtained auth token</text><line x1="312.509" y1="151.953" x2="356.259" y2="151.953" style="stroke:#2FA4E7;stroke-width:3.125;"/><line x1="356.259" y1="151.953" x2="356.259" y2="165.495" style="stroke:#2FA4E7;stroke-width:3.125;"/><line x1="313.55" y1="165.495" x2="356.259" y2="165.495" style="stroke:#2FA4E7;stroke-width:3.125;"/><polygon points="323.967,161.328,313.55,165.495,323.967,169.661,319.8,165.495" fill="#2FA4E7" style="stroke:#2FA4E7;stroke-width:1.042;stroke-linejoin:miter;stroke-miterlimit:10;"/><text x="319.8" y="146.922" fill="#343A40" font-size="12.5" textLength="12.561" font-style="italic" font-family="'Verdana'">at</text><text x="332.361" y="146.922" fill="#343A40" font-size="12.5" font-family="'Verdana'">,</text><text x="340.308" y="146.922" fill="#343A40" font-size="12.5" textLength="23.792" font-style="italic" font-family="'Verdana'">pub</text><text x="368.073" y="146.922" fill="#343A40" font-size="12.5" textLength="54.407" font-family="'Verdana'">= Load()</text><line x1="312.509" y1="194.629" x2="356.259" y2="194.629" style="stroke:#2FA4E7;stroke-width:3.125;"/><line x1="356.259" y1="194.629" x2="356.259" y2="208.171" style="stroke:#2FA4E7;stroke-width:3.125;"/><line x1="313.55" y1="208.171" x2="356.259" y2="208.171" style="stroke:#2FA4E7;stroke-width:3.125;"/><polygon points="323.967,204.004,313.55,208.171,323.967,212.337,319.8,208.171" fill="#2FA4E7" style="stroke:#2FA4E7;stroke-width:1.042;stroke-linejoin:miter;stroke-miterlimit:10;"/><text x="319.8" y="189.598" fill="#343A40" font-size="12.5" font-style="italic" font-family="'Verdana'">t</text><text x="328.675" y="189.598" fill="#343A40" font-size="12.5" textLength="134.479" font-family="'Verdana'">= CreateTransaction(</text><text x="463.154" y="189.598" fill="#343A40" font-size="12.5" textLength="23.792" font-style="italic" font-family="'Verdana'">pub</text><text x="486.945" y="189.598" fill="#343A40" font-size="12.5" textLength="24.744" font-family="'Verdana'">, ...)</text><rect x="15.625" y="237.321" width="1014.793" height="3.125" fill="url(#g1kfwh0ip4uk2t2)" style="stroke:url(#g1kfwh0ip4uk2t2);stroke-width:1.042;" rx="4.167" ry="4.167"/><line x1="15.625" y1="237.321" x2="1030.418" y2="237.321" style="stroke:#868E96;stroke-width:1.042;"/><line x1="15.625" y1="240.446" x2="1030.418" y2="240.446" style="stroke:#868E96;stroke-width:1.042;"/><rect x="363.112" y="226.921" width="319.82" height="22.884" fill="url(#g1kfwh0ip4uk2t2)" style="stroke:#868E96;stroke-width:2.083;" rx="4.167" ry="4.167"/><text x="369.362" y="242.69" fill="#343A40" font-size="12.5" textLength="300.885" font-weight="700" font-family="'Verdana'">Submit for signing with cached auth token</text><polygon points="580.422,276.855,590.839,281.022,580.422,285.189,584.589,281.022" fill="#2FA4E7" style="stroke:#2FA4E7;stroke-width:1.042;stroke-linejoin:miter;stroke-miterlimit:10;"/><line x1="312.509" y1="281.022" x2="586.672" y2="281.022" style="stroke:#2FA4E7;stroke-width:3.125;"/><text x="319.8" y="275.991" fill="#343A40" font-size="12.5" textLength="121.143" font-family="'Verdana'">sign_transactions {</text><text x="440.943" y="275.991" fill="#343A40" font-size="12.5" font-style="italic" font-family="'Verdana'">t</text><text x="445.844" y="275.991" fill="#343A40" font-size="12.5" font-family="'Verdana'">}</text><line x1="603.339" y1="310.156" x2="647.089" y2="310.156" style="stroke:#2FA4E7;stroke-width:3.125;"/><line x1="647.089" y1="310.156" x2="647.089" y2="323.698" style="stroke:#2FA4E7;stroke-width:3.125;"/><line x1="616.881" y1="323.698" x2="647.089" y2="323.698" style="stroke:#2FA4E7;stroke-width:3.125;"/><line x1="609.589" y1="318.49" x2="620.006" y2="328.906" style="stroke:#2FA4E7;stroke-width:2.083;"/><line x1="609.589" y1="328.906" x2="620.006" y2="318.49" style="stroke:#2FA4E7;stroke-width:2.083;"/><text x="610.631" y="305.125" fill="#343A40" font-size="12.5" textLength="221.533" font-family="'Verdana'">verify session is in authorized state</text><polygon points="323.967,348.665,313.55,352.832,323.967,356.999,319.8,352.832" fill="#2FA4E7" style="stroke:#2FA4E7;stroke-width:1.042;stroke-linejoin:miter;stroke-miterlimit:10;"/><line x1="317.717" y1="352.832" x2="591.881" y2="352.832" style="stroke:#2FA4E7;stroke-width:3.125;stroke-dasharray:2.083,2.083;"/><text x="330.217" y="347.801" fill="#343A40" font-size="12.5" textLength="255.414" font-family="'Verdana'">error {ERROR_AUTHORIZATION_FAILED}</text><rect x="15.625" y="381.982" width="1014.793" height="3.125" fill="url(#g1kfwh0ip4uk2t2)" style="stroke:url(#g1kfwh0ip4uk2t2);stroke-width:1.042;" rx="4.167" ry="4.167"/><line x1="15.625" y1="381.982" x2="1030.418" y2="381.982" style="stroke:#868E96;stroke-width:1.042;"/><line x1="15.625" y1="385.107" x2="1030.418" y2="385.107" style="stroke:#868E96;stroke-width:1.042;"/><rect x="471.003" y="371.582" width="104.036" height="22.884" fill="url(#g1kfwh0ip4uk2t2)" style="stroke:#868E96;stroke-width:2.083;" rx="4.167" ry="4.167"/><text x="477.253" y="387.351" fill="#343A40" font-size="12.5" textLength="85.101" font-weight="700" font-family="'Verdana'">Reauthorize</text><line x1="312.509" y1="425.684" x2="356.259" y2="425.684" style="stroke:#2FA4E7;stroke-width:3.125;"/><line x1="356.259" y1="425.684" x2="356.259" y2="439.225" style="stroke:#2FA4E7;stroke-width:3.125;"/><line x1="313.55" y1="439.225" x2="356.259" y2="439.225" style="stroke:#2FA4E7;stroke-width:3.125;"/><polygon points="323.967,435.059,313.55,439.225,323.967,443.392,319.8,439.225" fill="#2FA4E7" style="stroke:#2FA4E7;stroke-width:1.042;stroke-linejoin:miter;stroke-miterlimit:10;"/><text x="319.8" y="420.652" fill="#343A40" font-size="12.5" font-style="italic" font-family="'Verdana'">i</text><text x="327.247" y="420.652" fill="#343A40" font-size="12.5" textLength="105.261" font-family="'Verdana'">= DappIdentity()</text><line x1="312.509" y1="468.359" x2="356.259" y2="468.359" style="stroke:#2FA4E7;stroke-width:3.125;"/><line x1="356.259" y1="468.359" x2="356.259" y2="481.901" style="stroke:#2FA4E7;stroke-width:3.125;"/><line x1="313.55" y1="481.901" x2="356.259" y2="481.901" style="stroke:#2FA4E7;stroke-width:3.125;"/><polygon points="323.967,477.734,313.55,481.901,323.967,486.068,319.8,481.901" fill="#2FA4E7" style="stroke:#2FA4E7;stroke-width:1.042;stroke-linejoin:miter;stroke-miterlimit:10;"/><text x="319.8" y="463.328" fill="#343A40" font-size="12.5" font-style="italic" font-family="'Verdana'">c</text><text x="330.646" y="463.328" fill="#343A40" font-size="12.5" textLength="234.424" font-family="'Verdana'">= "{namespace}:{chain_reference}"</text><polygon points="580.422,506.868,590.839,511.035,580.422,515.202,584.589,511.035" fill="#2FA4E7" style="stroke:#2FA4E7;stroke-width:1.042;stroke-linejoin:miter;stroke-miterlimit:10;"/><line x1="312.509" y1="511.035" x2="586.672" y2="511.035" style="stroke:#2FA4E7;stroke-width:3.125;"/><text x="319.8" y="506.004" fill="#343A40" font-size="12.5" textLength="70.844" font-family="'Verdana'">authorize {</text><text x="390.644" y="506.004" fill="#343A40" font-size="12.5" font-style="italic" font-family="'Verdana'">i</text><text x="394.117" y="506.004" fill="#343A40" font-size="12.5" font-family="'Verdana'">,</text><text x="402.063" y="506.004" fill="#343A40" font-size="12.5" font-style="italic" font-family="'Verdana'">c</text><text x="408.936" y="506.004" fill="#343A40" font-size="12.5" font-family="'Verdana'">,</text><text x="416.883" y="506.004" fill="#343A40" font-size="12.5" textLength="12.561" font-style="italic" font-family="'Verdana'">at</text><text x="429.444" y="506.004" fill="#343A40" font-size="12.5" font-family="'Verdana'">}</text><line x1="603.339" y1="540.169" x2="647.089" y2="540.169" style="stroke:#2FA4E7;stroke-width:3.125;"/><line x1="647.089" y1="540.169" x2="647.089" y2="553.711" style="stroke:#2FA4E7;stroke-width:3.125;"/><line x1="604.381" y1="553.711" x2="647.089" y2="553.711" style="stroke:#2FA4E7;stroke-width:3.125;"/><polygon points="614.797,549.544,604.381,553.711,614.797,557.878,610.631,553.711" fill="#2FA4E7" style="stroke:#2FA4E7;stroke-width:1.042;stroke-linejoin:miter;stroke-miterlimit:10;"/><text x="610.631" y="535.138" fill="#343A40" font-size="12.5" textLength="138.983" font-family="'Verdana'">validate Dapp identity</text><text x="753.587" y="535.138" fill="#343A40" font-size="12.5" font-style="italic" font-family="'Verdana'">i</text><text x="761.034" y="535.138" fill="#343A40" font-size="12.5" textLength="53.735" font-family="'Verdana'">matches</text><text x="818.742" y="535.138" fill="#343A40" font-size="12.5" textLength="12.561" font-style="italic" font-family="'Verdana'">at</text><line x1="603.339" y1="597.396" x2="647.089" y2="597.396" style="stroke:#2FA4E7;stroke-width:3.125;"/><line x1="647.089" y1="597.396" x2="647.089" y2="610.938" style="stroke:#2FA4E7;stroke-width:3.125;"/><line x1="604.381" y1="610.938" x2="647.089" y2="610.938" style="stroke:#2FA4E7;stroke-width:3.125;"/><polygon points="614.797,606.771,604.381,610.938,614.797,615.104,610.631,610.938" fill="#2FA4E7" style="stroke:#2FA4E7;stroke-width:1.042;stroke-linejoin:miter;stroke-miterlimit:10;"/><text x="610.631" y="577.814" fill="#343A40" font-size="12.5" textLength="159.943" font-family="'Verdana'">Generate new auth token</text><text x="610.631" y="592.365" fill="#343A40" font-size="12.5" textLength="20.514" font-style="italic" font-family="'Verdana'">at2</text><text x="635.118" y="592.365" fill="#343A40" font-size="12.5" textLength="159.76" font-family="'Verdana'">= RegenerateAuthToken(</text><text x="794.878" y="592.365" fill="#343A40" font-size="12.5" font-style="italic" font-family="'Verdana'">i</text><text x="798.351" y="592.365" fill="#343A40" font-size="12.5" font-family="'Verdana'">,</text><text x="806.297" y="592.365" fill="#343A40" font-size="12.5" textLength="12.561" font-style="italic" font-family="'Verdana'">at</text><text x="818.858" y="592.365" fill="#343A40" font-size="12.5" font-family="'Verdana'">)</text><line x1="603.339" y1="640.072" x2="647.089" y2="640.072" style="stroke:#2FA4E7;stroke-width:3.125;"/><line x1="647.089" y1="640.072" x2="647.089" y2="653.613" style="stroke:#2FA4E7;stroke-width:3.125;"/><line x1="604.381" y1="653.613" x2="647.089" y2="653.613" style="stroke:#2FA4E7;stroke-width:3.125;"/><polygon points="614.797,649.447,604.381,653.613,614.797,657.78,610.631,653.613" fill="#2FA4E7" style="stroke:#2FA4E7;stroke-width:1.042;stroke-linejoin:miter;stroke-miterlimit:10;"/><text x="610.631" y="635.04" fill="#343A40" font-size="12.5" textLength="23.792" font-style="italic" font-family="'Verdana'">pub</text><text x="638.396" y="635.04" fill="#343A40" font-size="12.5" textLength="208.191" font-family="'Verdana'">= base58encode(GetPublicKey())</text><path d="M585.631,666.113 L647.034,666.113 L647.034,672.331 L636.618,682.747 L581.464,682.747 L581.464,670.28 A4.167,4.167 0 0 1 585.631,666.113" style="stroke:#868E96;stroke-width:1.042;" fill="#E9ECEF"/><rect x="581.464" y="666.113" width="439.579" height="69.727" fill="none" style="stroke:#59B6EC;stroke-width:1.042;" rx="4.167" ry="4.167"/><text x="597.089" y="678.758" fill="#033C73" font-size="12.5" textLength="18.695" font-weight="700" font-family="'Verdana'">alt</text><text x="662.659" y="679.799" fill="#343A40" font-size="12.5" textLength="341.718" font-weight="700" font-family="'Verdana'">[if wallet endpoint has an endpoint-specific URI]</text><line x1="603.339" y1="713.965" x2="647.089" y2="713.965" style="stroke:#2FA4E7;stroke-width:3.125;"/><line x1="647.089" y1="713.965" x2="647.089" y2="727.507" style="stroke:#2FA4E7;stroke-width:3.125;"/><line x1="604.381" y1="727.507" x2="647.089" y2="727.507" style="stroke:#2FA4E7;stroke-width:3.125;"/><polygon points="614.797,723.34,604.381,727.507,614.797,731.673,610.631,727.507" fill="#2FA4E7" style="stroke:#2FA4E7;stroke-width:1.042;stroke-linejoin:miter;stroke-miterlimit:10;"/><text x="610.631" y="708.934" fill="#343A40" font-size="12.5" textLength="16.534" font-style="italic" font-family="'Verdana'">uri</text><text x="631.139" y="708.934" fill="#343A40" font-size="12.5" textLength="131.793" font-family="'Verdana'">= EndpointBaseURI()</text><polygon points="323.967,767.057,313.55,771.224,323.967,775.391,319.8,771.224" fill="#2FA4E7" style="stroke:#2FA4E7;stroke-width:1.042;stroke-linejoin:miter;stroke-miterlimit:10;"/><line x1="317.717" y1="771.224" x2="591.881" y2="771.224" style="stroke:#2FA4E7;stroke-width:3.125;stroke-dasharray:2.083,2.083;"/><text x="330.217" y="766.193" fill="#343A40" font-size="12.5" textLength="61.926" font-family="'Verdana'">response(</text><text x="392.143" y="766.193" fill="#343A40" font-size="12.5" textLength="20.514" font-style="italic" font-family="'Verdana'">at2</text><text x="412.657" y="766.193" fill="#343A40" font-size="12.5" font-family="'Verdana'">,</text><text x="420.604" y="766.193" fill="#343A40" font-size="12.5" textLength="23.792" font-style="italic" font-family="'Verdana'">pub</text><text x="444.395" y="766.193" fill="#343A40" font-size="12.5" font-family="'Verdana'">,</text><text x="452.342" y="766.193" fill="#343A40" font-size="12.5" textLength="16.534" font-style="italic" font-family="'Verdana'">uri</text><text x="468.877" y="766.193" fill="#343A40" font-size="12.5" font-family="'Verdana'">)</text><line x1="312.509" y1="800.358" x2="356.259" y2="800.358" style="stroke:#2FA4E7;stroke-width:3.125;"/><line x1="356.259" y1="800.358" x2="356.259" y2="813.9" style="stroke:#2FA4E7;stroke-width:3.125;"/><line x1="313.55" y1="813.9" x2="356.259" y2="813.9" style="stroke:#2FA4E7;stroke-width:3.125;"/><polygon points="323.967,809.733,313.55,813.9,323.967,818.066,319.8,813.9" fill="#2FA4E7" style="stroke:#2FA4E7;stroke-width:1.042;stroke-linejoin:miter;stroke-miterlimit:10;"/><text x="319.8" y="795.327" fill="#343A40" font-size="12.5" textLength="38.19" font-family="'Verdana'">Store(</text><text x="357.99" y="795.327" fill="#343A40" font-size="12.5" textLength="20.514" font-style="italic" font-family="'Verdana'">at2</text><text x="378.504" y="795.327" fill="#343A40" font-size="12.5" font-family="'Verdana'">,</text><text x="386.451" y="795.327" fill="#343A40" font-size="12.5" textLength="23.792" font-style="italic" font-family="'Verdana'">pub</text><text x="410.242" y="795.327" fill="#343A40" font-size="12.5" font-family="'Verdana'">,</text><text x="418.189" y="795.327" fill="#343A40" font-size="12.5" textLength="16.534" font-style="italic" font-family="'Verdana'">uri</text><text x="434.723" y="795.327" fill="#343A40" font-size="12.5" font-family="'Verdana'">)</text><rect x="15.625" y="843.05" width="1014.793" height="3.125" fill="url(#g1kfwh0ip4uk2t2)" style="stroke:url(#g1kfwh0ip4uk2t2);stroke-width:1.042;" rx="4.167" ry="4.167"/><line x1="15.625" y1="843.05" x2="1030.418" y2="843.05" style="stroke:#868E96;stroke-width:1.042;"/><line x1="15.625" y1="846.175" x2="1030.418" y2="846.175" style="stroke:#868E96;stroke-width:1.042;"/><rect x="365.169" y="832.65" width="315.706" height="22.884" fill="url(#g1kfwh0ip4uk2t2)" style="stroke:#868E96;stroke-width:2.083;" rx="4.167" ry="4.167"/><text x="371.419" y="848.419" fill="#343A40" font-size="12.5" textLength="296.771" font-weight="700" font-family="'Verdana'">Resubmit for signing with new auth token</text><polygon points="580.422,882.585,590.839,886.751,580.422,890.918,584.589,886.751" fill="#2FA4E7" style="stroke:#2FA4E7;stroke-width:1.042;stroke-linejoin:miter;stroke-miterlimit:10;"/><line x1="312.509" y1="886.751" x2="586.672" y2="886.751" style="stroke:#2FA4E7;stroke-width:3.125;"/><text x="319.8" y="881.72" fill="#343A40" font-size="12.5" textLength="114.093" font-family="'Verdana'">sign_transactions(</text><text x="433.893" y="881.72" fill="#343A40" font-size="12.5" font-style="italic" font-family="'Verdana'">t</text><text x="438.794" y="881.72" fill="#343A40" font-size="12.5" font-family="'Verdana'">)</text><line x1="603.339" y1="915.885" x2="647.089" y2="915.885" style="stroke:#2FA4E7;stroke-width:3.125;"/><line x1="647.089" y1="915.885" x2="647.089" y2="929.427" style="stroke:#2FA4E7;stroke-width:3.125;"/><line x1="604.381" y1="929.427" x2="647.089" y2="929.427" style="stroke:#2FA4E7;stroke-width:3.125;"/><polygon points="614.797,925.26,604.381,929.427,614.797,933.594,610.631,929.427" fill="#2FA4E7" style="stroke:#2FA4E7;stroke-width:1.042;stroke-linejoin:miter;stroke-miterlimit:10;"/><text x="610.631" y="910.854" fill="#343A40" font-size="12.5" textLength="221.533" font-family="'Verdana'">verify session is in authorized state</text><line x1="603.339" y1="958.561" x2="647.089" y2="958.561" style="stroke:#2FA4E7;stroke-width:3.125;"/><line x1="647.089" y1="958.561" x2="647.089" y2="972.103" style="stroke:#2FA4E7;stroke-width:3.125;"/><line x1="604.381" y1="972.103" x2="647.089" y2="972.103" style="stroke:#2FA4E7;stroke-width:3.125;"/><polygon points="614.797,967.936,604.381,972.103,614.797,976.27,610.631,972.103" fill="#2FA4E7" style="stroke:#2FA4E7;stroke-width:1.042;stroke-linejoin:miter;stroke-miterlimit:10;"/><text x="610.631" y="953.53" fill="#343A40" font-size="12.5" textLength="124.774" font-family="'Verdana'">validate transaction</text><text x="739.378" y="953.53" fill="#343A40" font-size="12.5" font-style="italic" font-family="'Verdana'">t</text><line x1="603.339" y1="1015.788" x2="647.089" y2="1015.788" style="stroke:#2FA4E7;stroke-width:3.125;"/><line x1="647.089" y1="1015.788" x2="647.089" y2="1029.329" style="stroke:#2FA4E7;stroke-width:3.125;"/><line x1="604.381" y1="1029.329" x2="647.089" y2="1029.329" style="stroke:#2FA4E7;stroke-width:3.125;"/><polygon points="614.797,1025.163,604.381,1029.329,614.797,1033.496,610.631,1029.329" fill="#2FA4E7" style="stroke:#2FA4E7;stroke-width:1.042;stroke-linejoin:miter;stroke-miterlimit:10;"/><text x="610.631" y="996.206" fill="#343A40" font-size="12.5" textLength="100.427" font-family="'Verdana'">sign transaction</text><text x="610.631" y="1010.756" fill="#343A40" font-size="12.5" textLength="11.414" font-style="italic" font-family="'Verdana'">st</text><text x="626.018" y="1010.756" fill="#343A40" font-size="12.5" textLength="168.744" font-family="'Verdana'">= SignSolanaTransactions(</text><text x="794.762" y="1010.756" fill="#343A40" font-size="12.5" font-style="italic" font-family="'Verdana'">t</text><text x="799.663" y="1010.756" fill="#343A40" font-size="12.5" font-family="'Verdana'">)</text><polygon points="323.967,1054.297,313.55,1058.464,323.967,1062.63,319.8,1058.464" fill="#2FA4E7" style="stroke:#2FA4E7;stroke-width:1.042;stroke-linejoin:miter;stroke-miterlimit:10;"/><line x1="317.717" y1="1058.464" x2="591.881" y2="1058.464" style="stroke:#2FA4E7;stroke-width:3.125;stroke-dasharray:2.083,2.083;"/><text x="330.217" y="1053.432" fill="#343A40" font-size="12.5" textLength="61.926" font-family="'Verdana'">response(</text><text x="392.143" y="1053.432" fill="#343A40" font-size="12.5" textLength="11.414" font-style="italic" font-family="'Verdana'">st</text><text x="403.557" y="1053.432" fill="#343A40" font-size="12.5" font-family="'Verdana'">)</text><rect x="15.625" y="1087.614" width="1014.793" height="3.125" fill="url(#g1kfwh0ip4uk2t2)" style="stroke:url(#g1kfwh0ip4uk2t2);stroke-width:1.042;" rx="4.167" ry="4.167"/><line x1="15.625" y1="1087.614" x2="1030.418" y2="1087.614" style="stroke:#868E96;stroke-width:1.042;"/><line x1="15.625" y1="1090.739" x2="1030.418" y2="1090.739" style="stroke:#868E96;stroke-width:1.042;"/><rect x="379.768" y="1077.214" width="286.507" height="22.884" fill="url(#g1kfwh0ip4uk2t2)" style="stroke:#868E96;stroke-width:2.083;" rx="4.167" ry="4.167"/><text x="386.018" y="1092.983" fill="#343A40" font-size="12.5" textLength="267.572" font-weight="700" font-family="'Verdana'">Submit signed transaction to network</text><rect x="83.71" y="1115.723" width="92.43" height="60.352" fill="url(#g1kfwh0ip4uk2t0)" style="stroke:#2FA4E7;stroke-width:1.042;" rx="4.167" ry="4.167"/><text x="108.776" y="1142.95" fill="#FFF" font-size="12.5" textLength="42.297" font-family="'Verdana'">Solana</text><text x="104.544" y="1157.501" fill="#FFF" font-size="12.5" textLength="50.763" font-family="'Verdana'">network</text><polygon points="229.265,1127.148,218.848,1131.315,229.265,1135.482,225.098,1131.315" fill="#2FA4E7" style="stroke:#2FA4E7;stroke-width:1.042;stroke-linejoin:miter;stroke-miterlimit:10;"/><line x1="223.015" y1="1131.315" x2="301.05" y2="1131.315" style="stroke:#2FA4E7;stroke-width:3.125;stroke-dasharray:2.083,2.083;"/><text x="235.515" y="1126.284" fill="#343A40" font-size="12.5" font-family="'Verdana'">{</text><text x="243.468" y="1126.284" fill="#343A40" font-size="12.5" textLength="11.414" font-style="italic" font-family="'Verdana'">st</text><text x="254.881" y="1126.284" fill="#343A40" font-size="12.5" font-family="'Verdana'">}</text><rect x="15.625" y="1203.141" width="1014.793" height="3.125" fill="url(#g1kfwh0ip4uk2t2)" style="stroke:url(#g1kfwh0ip4uk2t2);stroke-width:1.042;" rx="4.167" ry="4.167"/><line x1="15.625" y1="1203.141" x2="1030.418" y2="1203.141" style="stroke:#868E96;stroke-width:1.042;"/><line x1="15.625" y1="1206.266" x2="1030.418" y2="1206.266" style="stroke:#868E96;stroke-width:1.042;"/><rect x="480.079" y="1192.741" width="85.885" height="22.884" fill="url(#g1kfwh0ip4uk2t2)" style="stroke:#868E96;stroke-width:2.083;" rx="4.167" ry="4.167"/><text x="486.329" y="1208.51" fill="#343A40" font-size="12.5" textLength="66.949" font-weight="700" font-family="'Verdana'">Complete</text><g class="legend" data-source-line="55"><rect x="140.876" y="1252.083" width="763.25" height="135.498" fill="none" style="stroke:#BABDBF;stroke-width:1.042;" rx="4.167" ry="4.167"/><text x="147.126" y="1273.953" fill="#343A40" font-size="14.583" font-family="'Verdana'"> </text><text x="151.762" y="1273.953" fill="#343A40" font-size="14.583" font-style="italic" font-family="'Verdana'">i</text><text x="155.813" y="1273.953" fill="#343A40" font-size="14.583" textLength="13.907" font-family="'Verdana'">   </text><text x="188.79" y="1273.953" fill="#343A40" font-size="14.583" textLength="317.942" font-family="'Verdana'">the dapp identity (name, icon, website URI)</text><text x="147.126" y="1290.929" fill="#343A40" font-size="14.583" font-family="'Verdana'"> </text><text x="151.762" y="1290.929" fill="#343A40" font-size="14.583" textLength="14.655" font-style="italic" font-family="'Verdana'">at</text><text x="166.416" y="1290.929" fill="#343A40" font-size="14.583" textLength="9.271" font-family="'Verdana'">  </text><text x="188.79" y="1290.929" fill="#343A40" font-size="14.583" textLength="662.73" font-family="'Verdana'">a persistent authentication token issued by the wallet to this dapp which is no longer valid</text><text x="147.126" y="1307.905" fill="#343A40" font-size="14.583" font-family="'Verdana'"> </text><text x="151.762" y="1307.905" fill="#343A40" font-size="14.583" textLength="23.933" font-style="italic" font-family="'Verdana'">at2</text><text x="175.695" y="1307.905" fill="#343A40" font-size="14.583" font-family="'Verdana'"> </text><text x="188.79" y="1307.905" fill="#343A40" font-size="14.583" textLength="448.416" font-family="'Verdana'">a persistent authentication token with the same privileges as</text><text x="641.841" y="1307.905" fill="#343A40" font-size="14.583" textLength="14.655" font-style="italic" font-family="'Verdana'">at</text><text x="661.132" y="1307.905" fill="#343A40" font-size="14.583" textLength="98.331" font-family="'Verdana'">which is valid</text><text x="147.126" y="1324.881" fill="#343A40" font-size="14.583" font-family="'Verdana'"> </text><text x="151.762" y="1324.881" fill="#343A40" font-size="14.583" textLength="27.757" font-style="italic" font-family="'Verdana'">pub</text><text x="179.518" y="1324.881" fill="#343A40" font-size="14.583" font-family="'Verdana'"> </text><text x="188.79" y="1324.881" fill="#343A40" font-size="14.583" textLength="457.467" font-family="'Verdana'">the wallet account public key for which this dapp is authorized</text><text x="147.126" y="1341.857" fill="#343A40" font-size="14.583" font-family="'Verdana'"> </text><text x="151.762" y="1341.857" fill="#343A40" font-size="14.583" font-style="italic" font-family="'Verdana'">t</text><text x="157.48" y="1341.857" fill="#343A40" font-size="14.583" textLength="13.907" font-family="'Verdana'">   </text><text x="188.79" y="1341.857" fill="#343A40" font-size="14.583" textLength="381.844" font-family="'Verdana'">the transaction that the dapp wishes to have signed</text><text x="184.154" y="1358.833" fill="#343A40" font-size="14.583" textLength="275.033" font-family="'Verdana'">with the private key corresponding to</text><text x="463.822" y="1358.833" fill="#343A40" font-size="14.583" textLength="27.757" font-style="italic" font-family="'Verdana'">pub</text><text x="491.579" y="1358.833" fill="#343A40" font-size="14.583" font-family="'Verdana'"> </text><text x="147.126" y="1375.809" fill="#343A40" font-size="14.583" font-family="'Verdana'"> </text><text x="151.762" y="1375.809" fill="#343A40" font-size="14.583" textLength="13.316" font-style="italic" font-family="'Verdana'">st</text><text x="165.077" y="1375.809" fill="#343A40" font-size="14.583" textLength="9.271" font-family="'Verdana'">  </text><text x="184.154" y="1375.809" fill="#343A40" font-size="14.583" font-family="'Verdana'"> </text><text x="188.79" y="1375.809" fill="#343A40" font-size="14.583" font-style="italic" font-family="'Verdana'">t</text><text x="194.508" y="1375.809" fill="#343A40" font-size="14.583" textLength="337.318" font-family="'Verdana'">, signed with the private key corresponding to</text><text x="536.461" y="1375.809" fill="#343A40" font-size="14.583" textLength="27.757" font-style="italic" font-family="'Verdana'">pub</text><text x="564.218" y="1375.809" fill="#343A40" font-size="14.583" textLength="171.518" font-family="'Verdana'">                                     </text><line x1="147.126" y1="1260.417" x2="897.876" y2="1260.417" style="stroke:#343A40;stroke-width:1.042;"/><line x1="147.126" y1="1277.393" x2="897.876" y2="1277.393" style="stroke:#343A40;stroke-width:1.042;"/><line x1="147.126" y1="1294.368" x2="897.876" y2="1294.368" style="stroke:#343A40;stroke-width:1.042;"/><line x1="147.126" y1="1311.344" x2="897.876" y2="1311.344" style="stroke:#343A40;stroke-width:1.042;"/><line x1="147.126" y1="1328.32" x2="897.876" y2="1328.32" style="stroke:#343A40;stroke-width:1.042;"/><line x1="147.126" y1="1362.272" x2="897.876" y2="1362.272" style="stroke:#343A40;stroke-width:1.042;"/><line x1="147.126" y1="1379.248" x2="897.876" y2="1379.248" style="stroke:#343A40;stroke-width:1.042;"/><line x1="147.126" y1="1260.417" x2="147.126" y2="1379.248" style="stroke:#343A40;stroke-width:1.042;"/><line x1="184.154" y1="1260.417" x2="184.154" y2="1379.248" style="stroke:#343A40;stroke-width:1.042;"/><line x1="897.876" y1="1260.417" x2="897.876" y2="1379.248" style="stroke:#343A40;stroke-width:1.042;"/></g><?plantuml-src dLNlQniv4FsklsAQVh6fdOF2GGbr84tJdccv78vBIma4hNRi5LvBYwIrp-VaVx-HLlkhtPIa_f2irvfvRzwy6Rrm6MuH19eoHwwOtKXLSCEta72nMHjTglHIvzh0om_XmrWcKuILrYxH_p96XvqKik3AmOtEkUB0BPnKZxTAeTjhipdfdNlFYwBtuYlFStICAUqGk33QMZWBno2ZR6WTJt9fCqo1WqLhfLQmbowBaKJ7W3DSMIwS_ytAjP9g3QNrVpaK1dTIbpO_W4uSbyfdAYdUwGqgndpOZXDueCO2ylIyOd06R-KvTs__aESJ_rYKYN-66NpMF1sD1qwxUE3I82LTjiH6RVm4JazFnupDPd1J9bjP5L4J3yK9Bh8UKPZDMdAnz5UlfbD2zO5t7Gai76iY3omUdNwhWyvWXqQk3esOqe9K0KaR-H-1akGEcy2wkWY6nX3NuzLYSRsuk_Yo_EjwCVz-iPnV_tttuMB--UhzGwXhWKt27lDMA1c5yc_cAIedtM5GKH4FdXmLtw8jkC27iwF8g9Lt1bTeKD6RaqV4QMaSQz19atNIzhTLwhoZ5CzbMdi3P6JPijzoHssoRPQX91zHeV595Eux3RrL8Ufrh6w1wtZkWeui_ObHZt05C1v2w3apuHR_V4EQw1H77z7zKzByY4z8ueuPpnt85UohI5HfeIKDePyqhfhlKrkWa2ifuCjYpe0-mw2bgPju5IFV4JZ5ZCR0ADbZ7ZBKHR8fZbe5kkCrwUJ-oH0tJfkd1LOsj8yCMByPpvckKJrSWxrutd0DUQsxp6geeG1Fh7iu6ChM--U6VgqsyVBNt7_H6-jQ9UEYyg1KHPUZqn1NVL1HXCKNBuIeAM742o9W79lSrRAurDk2k5IR8lU3aBBxTie0xe7kAaXxGpZoss02KcWrWJqcLb82yjuOVlzpNy5Me-PXwVf0OwLr11gwwC45ZtLxuqXhIn8aEGIASR184fTHwmFZVIP5vesWDEHQhT5KlHw0hPR1Ks23XpsY9HNeZfCxwOMp_WPkAsYWVm3imTQhuxvR0HU2xdy7HTWUiC536A4gOLiR_Uzu-raYkrvlUuRAk6iRllUNl_MIPdo7qO2tgX70r-uDvoaARIh_fdxEAQHRNWLhczxM72QrgP-TycdLafiXclf_?></g></svg>